<svg xmlns="http://www.w3.org/2000/svg" viewBox="0 0 530.33 75.82"><title>LadyHacks Logo</title><path d="m38.4 64.7a1.84 1.84 0 0 1 0.6 1.4 1.79 1.79 0 0 1-0.57 1.39 1.92 1.92 0 0 1-1.34 0.53h-35.2a1.79 1.79 0 0 1-1.39-0.58 1.92 1.92 0 0 1-0.51-1.3v-63.2a1.84 1.84 0 0 1 0.57-1.37 2 2 0 0 1 1.43-0.53 2 2 0 0 1 1.44 0.57 1.84 1.84 0 0 1 0.56 1.3v61.3h33a1.84 1.84 0 0 1 1.4 0.5z"/><path d="m104 66.2a1.65 1.65 0 0 1-0.58 1.34 2.35 2.35 0 0 1-2.63 0.14 1.68 1.68 0 0 1-0.72-0.91l-8-19.8 0.1 0.19h-32.1l-7.7 19.5a1.73 1.73 0 0 1-1.7 1.3 2 2 0 0 1-1.39-0.48 1.87 1.87 0 0 1-0.62-1.15 1.73 1.73 0 0 1 0.1-1l25.7-63.4a1.83 1.83 0 0 1 0.72-1 2.27 2.27 0 0 1 1.1-0.24 1.86 1.86 0 0 1 1.9 1.24l25.9 63.4a2.53 2.53 0 0 1 0 0.8zm-42.4-22.8h29l-14.7-36.1z"/><path d="m158 5.55a27.2 27.2 0 0 1 9.29 12.2 45 45 0 0 1 3 16.7 45.7 45.7 0 0 1-3 17 26.4 26.4 0 0 1-9.24 12q-6 4.6-15 4.6h-25a2 2 0 0 1-1.91-1.92v-63.2a1.84 1.84 0 0 1 0.57-1.34 1.83 1.83 0 0 1 1-0.56h24.9q9 0 15 4.55zm2 50.4q6.13-8.19 6.13-21.5a40.7 40.7 0 0 0-2.63-14.9 23.6 23.6 0 0 0-8.14-10.8q-5.51-4-13.9-4h-21v59.4h22q12 0 18-8.2z"/><path d="m223 3.64-22 29.7v32.8a1.83 1.83 0 0 1-0.57 1.34 2.08 2.08 0 0 1-2.87 0 1.83 1.83 0 0 1-0.58-1.34v-32.4l-21-30.1a1.92 1.92 0 0 1-0.38-1.24 1.68 1.68 0 0 1 0.62-1.25 2 2 0 0 1 1.39-0.57 1.85 1.85 0 0 1 1.63 0.86l20.7 28.2 20-28.2a1.84 1.84 0 0 1 1.63-0.86 1.73 1.73 0 0 1 1.39 0.62 1.9 1.9 0 0 1 0.53 1.2 3 3 0 0 1-1 1.28z"/><path d="m286 1.53a2 2 0 0 1 1 1.47v63a2.33 2.33 0 0 1-0.67 1.44 1.84 1.84 0 0 1-1.34 0.58 1.91 1.91 0 0 1-1.48-0.58 2 2 0 0 1-0.53-1.44v-30.6h-42v30.6a2.33 2.33 0 0 1-0.67 1.44 1.84 1.84 0 0 1-1.34 0.58 1.91 1.91 0 0 1-1.48-0.58 2 2 0 0 1-0.53-1.44v-63a2 2 0 1 1 4 0v28.6h41.8v-28.6a2 2 0 0 1 3.45-1.44z"/><path d="m408 8a1.93 1.93 0 0 1-0.38 1.24 1.73 1.73 0 0 1-1.44 0.77 2.92 2.92 0 0 1-1.15-0.38 33.1 33.1 0 0 0-18.9-6 28.8 28.8 0 0 0-25.5 15 32 32 0 0 0-3.93 15.8 32 32 0 0 0 3.93 15.8 28.8 28.8 0 0 0 25.5 15 32.7 32.7 0 0 0 18.8-5.94 1.78 1.78 0 0 1 1.15-0.38 1.82 1.82 0 0 1 1.53 0.77 1.79 1.79 0 0 1 0.38 1.15 1.82 1.82 0 0 1-0.77 1.53 35 35 0 0 1-9.62 4.6 36.9 36.9 0 0 1-11.4 1.92 32.5 32.5 0 0 1-16.8-4.5 33.1 33.1 0 0 1-12-12.3 34.8 34.8 0 0 1-4.5-17.6 34.8 34.8 0 0 1 4.5-17.6 33.1 33.1 0 0 1 13-12.3 32.5 32.5 0 0 1 16-4.5 37.1 37.1 0 0 1 21 6.51 1.93 1.93 0 0 1 1 1.49z"/><path d="m477 66.4a1.71 1.71 0 0 1-0.72 1.53 2.65 2.65 0 0 1-1.48 0.48 1.72 1.72 0 0 1-1.34-0.67l-29-35.4-14 13.3v20.4a2.33 2.33 0 0 1-0.67 1.44 1.84 1.84 0 0 1-1.34 0.58 1.91 1.91 0 0 1-1.48-0.58 2 2 0 0 1-0.53-1.44v-63a2 2 0 1 1 4 0v37.7l41-38.8a1.85 1.85 0 0 1 2.68 0 1.85 1.85 0 0 1 0 2.68l-27 24.7 29 35.8a2.31 2.31 0 0 1 1 1.3z"/><path d="m497 66.5a37 37 0 0 1-10.4-7.61 2 2 0 0 1-0.57-1.44 2.17 2.17 0 0 1 0.67-1.48 2 2 0 0 1 1.44-0.72 2.19 2.19 0 0 1 1.63 0.86 24.8 24.8 0 0 0 8.86 6.7 26 26 0 0 0 10.8 2.3q7.37 0 12.2-3.54a11.1 11.1 0 0 0 4.79-9.38 12.1 12.1 0 0 0-2.49-7.56 17.8 17.8 0 0 0-5.89-4.74 91 91 0 0 0-9.53-4 99.1 99.1 0 0 1-10-4.6 18.4 18.4 0 0 1-6-5.5 15.2 15.2 0 0 1-2.63-9.29 14.9 14.9 0 0 1 2.58-8.52 17.4 17.4 0 0 1 7.37-6 26.3 26.3 0 0 1 11-2.2 28.3 28.3 0 0 1 10.7 2.06 19.3 19.3 0 0 1 8 5.79 4.19 4.19 0 0 1 1 2 1.82 1.82 0 0 1-0.72 1.39 2.35 2.35 0 0 1-1.58 0.62 1.54 1.54 0 0 1-1.24-0.57 18.9 18.9 0 0 0-6.89-5.46 21.3 21.3 0 0 0-9.29-2 20.3 20.3 0 0 0-12 3.54 10.9 10.9 0 0 0-4.83 9.38 10.7 10.7 0 0 0 2.35 7 17.7 17.7 0 0 0 5.89 4.64 84.6 84.6 0 0 0 9 3.7 92.2 92.2 0 0 1 10.6 4.4 18.9 18.9 0 0 1 6.7 5.84q2.78 3.83 2.78 10.2a14.4 14.4 0 0 1-2.58 8.23 17.7 17.7 0 0 1-7.42 6.08 26 26 0 0 1-11.1 2.25 29.1 29.1 0 0 1-12-2.5z"/><rect y="13.1" x="316" height="3.92" width="3.92"/><rect y="9.16" x="312" height="3.92" width="3.92"/><polygon points="336 68 332 68 332 64.1 332 60.1 328 60.1 328 56.2 328 52.3 324 52.3 324 48.4 320 48.4 320 52.3 316 52.3 316 56.2 312 56.2 312 60.1 308 60.1 308 9.15 312 9.15 312 5.23 308 5.23 308 1.31 305 1.31 305 5.23 301 5.23 301 68 307 68 308 68 312 68 312 64.1 316 64.1 316 60.1 320 60.1 320 64.1 324 64.1 324 71.9 328 71.9 328 75.8 332 75.8 336 75.8 336 71.9 340 71.9 340 68 340 64.1 340 60.1 336 60.1 336 64.1"/><rect y="17" x="320" height="3.92" width="3.92"/><rect y="20.9" x="324" height="3.92" width="3.92"/><rect y="24.8" x="328" height="3.92" width="3.92"/><rect y="28.8" x="332" height="3.92" width="3.92"/><rect y="32.7" x="336" height="3.92" width="3.92"/><rect y="36.6" x="340" height="3.92" width="3.92"/><polygon points="344 40.5 344 44.4 340 44.4 336 44.4 332 44.4 328 44.4 328 48.4 328 52.3 332 52.3 332 48.4 336 48.4 340 48.4 344 48.4 348 48.4 348 44.4 348 40.5"/><polygon points="332 60.1 336 60.1 336 56.2 336 52.3 332 52.3 332 56.2"/></svg>
